<?xml version="1.0" standalone="no"?>
<!DOCTYPE svg PUBLIC "-//W3C//DTD SVG 20010904//EN"
 "http://www.w3.org/TR/2001/REC-SVG-20010904/DTD/svg10.dtd">
<svg version="1.0" xmlns="http://www.w3.org/2000/svg"
 width="801.000000pt" height="466.000000pt" viewBox="0 0 801.000000 466.000000"
 preserveAspectRatio="xMidYMid meet" >
<metadata>
Created by potrace 1.16, written by Peter Selinger 2001-2019
</metadata>
<g transform="translate(0.000000,466.000000) scale(0.100000,-0.100000)"
fill="#ffffff" stroke="none">
<path d="M870 4609 c-168 -45 -224 -71 -300 -135 -73 -62 -159 -117 -315 -204
-144 -80 -177 -106 -207 -164 -15 -30 -19 -54 -17 -100 7 -113 -2 -2226 -12
-3008 l-10 -777 26 -55 c45 -94 112 -135 260 -156 44 -6 623 -10 1560 -10
l1490 0 45 26 45 26 1521 -4 c1338 -3 1523 -1 1543 12 12 8 43 46 69 84 29 43
60 76 82 87 50 26 197 28 285 4 64 -18 69 -18 123 -1 103 33 142 47 147 57 4
5 23 9 44 9 28 0 56 12 110 47 62 42 75 56 102 111 31 63 54 86 100 97 14 3
52 30 85 58 56 49 147 107 239 152 87 43 107 127 55 225 -17 30 -30 60 -30 66
0 6 -8 22 -19 35 -10 13 -22 35 -26 49 -4 14 -16 37 -26 51 -10 14 -21 37 -24
52 -10 39 -88 122 -138 146 -27 13 -63 21 -95 21 l-52 0 0 78 c0 106 -25 157
-95 193 l-50 25 -3 113 -3 113 76 76 c109 111 121 172 50 261 -19 24 -35 47
-35 52 0 4 33 33 73 63 77 58 108 96 206 245 43 68 64 111 72 152 10 53 15 60
86 120 109 91 126 150 69 228 -36 49 -79 76 -181 116 -112 43 -163 79 -190
131 -11 21 -28 49 -39 61 -14 16 -16 26 -8 35 20 25 24 82 8 130 -12 34 -14
53 -6 73 28 73 2 140 -87 228 -59 58 -99 77 -160 77 -28 0 -33 5 -49 45 -23
60 -143 175 -201 193 -32 10 -659 12 -2949 12 -1599 0 -2911 3 -2916 8 -4 4
-3 44 2 87 13 104 4 164 -34 228 -31 51 -98 99 -136 96 -8 -1 -80 -19 -160
-40z m160 -160 c8 -14 8 -45 1 -108 -18 -145 6 -222 79 -259 l46 -22 2929 -1
2929 0 46 -47 c25 -26 52 -63 60 -82 7 -19 20 -45 28 -57 19 -31 90 -63 138
-63 33 0 46 -7 78 -39 37 -38 38 -40 22 -62 -22 -31 -20 -87 3 -126 17 -27 18
-33 6 -43 -8 -6 -22 -31 -31 -56 -20 -53 -8 -92 37 -125 16 -11 37 -35 46 -52
48 -96 131 -160 276 -216 48 -19 87 -37 87 -41 0 -4 -25 -29 -55 -55 -63 -53
-81 -84 -95 -154 -17 -89 -166 -298 -241 -336 -38 -20 -95 -88 -109 -130 -17
-51 -7 -108 28 -165 l30 -48 -59 -58 c-89 -88 -99 -114 -100 -274 -1 -106 2
-144 15 -175 20 -47 68 -99 106 -115 27 -11 28 -14 32 -109 6 -147 36 -181
166 -189 49 -3 83 -10 94 -20 18 -15 158 -291 158 -311 0 -6 -5 -11 -12 -11
-16 0 -199 -122 -223 -150 -11 -12 -43 -32 -71 -45 -70 -31 -123 -81 -150
-141 -25 -58 -65 -88 -129 -99 -22 -4 -56 -15 -75 -25 -19 -10 -56 -25 -82
-32 -42 -13 -51 -13 -94 3 -42 16 -63 17 -179 10 -180 -12 -237 -40 -319 -152
l-39 -54 -1509 3 -1508 4 -48 -24 -47 -23 -1500 2 c-1526 2 -1566 3 -1596 39
-13 16 -13 386 2 1799 5 556 9 1239 8 1518 -1 291 2 512 7 517 5 5 68 41 139
81 152 85 227 134 310 202 71 59 94 69 234 107 130 35 118 34 131 9z"/>
</g>
</svg>
